<svg width="569" height="558" viewBox="0 0 569 558" fill="none" xmlns="http://www.w3.org/2000/svg">
<path d="M14.9691 270.4C14.9691 221.851 24.1394 185.305 42.48 160.761C61.0903 136.217 87.3874 123.945 121.371 123.945C157.783 123.945 184.619 136.082 201.881 160.357C219.143 184.361 227.774 221.042 227.774 270.4C227.774 318.949 218.469 355.495 199.858 380.039C181.248 404.583 154.142 416.855 118.539 416.855C99.9291 416.855 84.016 413.618 70.8 407.145C57.8537 400.402 47.2 390.827 38.8389 378.421C30.7474 365.744 24.6789 350.37 20.6331 332.299C16.8571 314.229 14.9691 293.595 14.9691 270.4ZM60.2811 270.4C60.2811 289.819 61.2251 307.486 63.1131 323.399C65.2709 339.312 68.6423 352.933 73.2274 364.261C78.0823 375.589 84.1509 384.354 91.4332 390.558C98.7154 396.761 107.616 399.863 118.135 399.863C141.87 399.863 158.457 389.479 167.897 368.711C177.607 347.673 182.462 314.903 182.462 270.4C182.462 250.981 181.518 233.314 179.63 217.401C178.011 201.488 174.775 187.867 169.92 176.539C165.335 165.211 159.131 156.446 151.31 150.242C143.488 144.039 133.509 140.937 121.371 140.937C98.9851 140.937 83.2069 151.456 74.0366 172.494C64.8663 193.262 60.2811 225.897 60.2811 270.4ZM311.362 196.363H272.523V151.456C283.042 143.365 295.719 136.891 310.553 132.037C325.387 127.182 341.705 124.754 359.506 124.754C374.61 124.754 387.691 126.642 398.749 130.418C409.808 134.194 418.843 139.319 425.856 145.792C433.138 151.995 438.397 159.278 441.634 167.639C445.14 176 446.893 184.901 446.893 194.341C446.893 211.333 442.713 228.325 434.352 245.317C425.991 262.309 415.472 278.357 402.795 293.461C390.119 308.565 376.228 322.455 361.124 335.131C346.02 347.808 331.591 358.597 317.835 367.497L308.935 373.161C306.777 374.51 304.619 375.993 302.461 377.611C300.304 378.96 298.82 379.904 298.011 380.443V382.062L324.308 379.634H418.169L426.26 371.543V332.704H452.153V412H268.477V378.016C275.49 373.97 283.581 368.576 292.752 361.833C302.192 355.09 311.901 347.269 321.881 338.368C331.86 329.467 341.705 319.758 351.415 309.239C361.124 298.45 369.755 287.257 377.307 275.659C384.859 263.792 390.928 251.79 395.513 239.653C400.368 227.246 402.795 214.839 402.795 202.432C402.795 194.61 401.581 187.328 399.154 180.585C396.996 173.842 393.625 167.909 389.04 162.784C384.724 157.659 379.195 153.749 372.452 151.051C365.979 148.085 358.562 146.601 350.201 146.601C341.3 146.601 333.883 147.275 327.949 148.624C322.285 149.973 316.756 151.726 311.362 153.883V196.363Z" fill="white"/>
<path d="M39.9691 270.4C39.9691 221.851 49.1394 185.305 67.48 160.761C86.0903 136.217 112.387 123.945 146.371 123.945C182.783 123.945 209.619 136.082 226.881 160.357C244.143 184.361 252.774 221.042 252.774 270.4C252.774 318.949 243.469 355.495 224.858 380.039C206.248 404.583 179.142 416.855 143.539 416.855C124.929 416.855 109.016 413.618 95.8 407.145C82.8537 400.402 72.2 390.827 63.8389 378.421C55.7474 365.744 49.6789 350.37 45.6331 332.299C41.8571 314.229 39.9691 293.595 39.9691 270.4ZM85.2811 270.4C85.2811 289.819 86.2251 307.486 88.1131 323.399C90.2709 339.312 93.6423 352.933 98.2274 364.261C103.082 375.589 109.151 384.354 116.433 390.558C123.715 396.761 132.616 399.863 143.135 399.863C166.87 399.863 183.457 389.479 192.897 368.711C202.607 347.673 207.462 314.903 207.462 270.4C207.462 250.981 206.518 233.314 204.63 217.401C203.011 201.488 199.775 187.867 194.92 176.539C190.335 165.211 184.131 156.446 176.31 150.242C168.488 144.039 158.509 140.937 146.371 140.937C123.985 140.937 108.207 151.456 99.0366 172.494C89.8663 193.262 85.2811 225.897 85.2811 270.4ZM336.362 196.363H297.523V151.456C308.042 143.365 320.719 136.891 335.553 132.037C350.387 127.182 366.705 124.754 384.506 124.754C399.61 124.754 412.691 126.642 423.749 130.418C434.808 134.194 443.843 139.319 450.856 145.792C458.138 151.995 463.397 159.278 466.634 167.639C470.14 176 471.893 184.901 471.893 194.341C471.893 211.333 467.713 228.325 459.352 245.317C450.991 262.309 440.472 278.357 427.795 293.461C415.119 308.565 401.228 322.455 386.124 335.131C371.02 347.808 356.591 358.597 342.835 367.497L333.935 373.161C331.777 374.51 329.619 375.993 327.461 377.611C325.304 378.96 323.82 379.904 323.011 380.443V382.062L349.308 379.634H443.169L451.26 371.543V332.704H477.153V412H293.477V378.016C300.49 373.97 308.581 368.576 317.752 361.833C327.192 355.09 336.901 347.269 346.881 338.368C356.86 329.467 366.705 319.758 376.415 309.239C386.124 298.45 394.755 287.257 402.307 275.659C409.859 263.792 415.928 251.79 420.513 239.653C425.368 227.246 427.795 214.839 427.795 202.432C427.795 194.61 426.581 187.328 424.154 180.585C421.996 173.842 418.625 167.909 414.04 162.784C409.724 157.659 404.195 153.749 397.452 151.051C390.979 148.085 383.562 146.601 375.201 146.601C366.3 146.601 358.883 147.275 352.949 148.624C347.285 149.973 341.756 151.726 336.362 153.883V196.363Z" fill="#D6D6D6"/>
<path d="M54.9672 499.648C47.2661 497.434 41.6539 494.721 38.1307 491.51C34.6387 488.268 32.8927 484.277 32.8927 479.538C32.8927 474.175 35.0285 469.747 39.2999 466.255C43.6026 462.732 49.1835 460.971 56.0428 460.971C60.7196 460.971 64.8819 461.875 68.5298 463.683C72.2089 465.492 75.0461 467.986 77.0416 471.166C79.0682 474.346 80.0815 477.823 80.0815 481.595H71.0553C71.0553 477.48 69.7458 474.253 67.1268 471.914C64.5078 469.545 60.8131 468.36 56.0428 468.36C51.6155 468.36 48.1546 469.342 45.6604 471.306C43.1973 473.239 41.9657 475.936 41.9657 479.397C41.9657 482.172 43.1349 484.526 45.4733 486.459C47.8429 488.361 51.8493 490.107 57.4926 491.697C63.1671 493.287 67.5945 495.049 70.7747 496.982C73.9861 498.884 76.3556 501.113 77.8834 503.67C79.4423 506.226 80.2218 509.235 80.2218 512.696C80.2218 518.215 78.0705 522.642 73.7678 525.978C69.4652 529.283 63.7127 530.935 56.5105 530.935C51.8337 530.935 47.4687 530.047 43.4155 528.27C39.3623 526.461 36.2288 523.998 34.0152 520.88C31.8327 517.762 30.7414 514.224 30.7414 510.264H39.7676C39.7676 514.38 41.2798 517.638 44.3041 520.038C47.3596 522.408 51.4284 523.593 56.5105 523.593C61.2496 523.593 64.8819 522.626 67.4074 520.693C69.9329 518.76 71.1956 516.126 71.1956 512.789C71.1956 509.453 70.0264 506.881 67.688 505.073C65.3496 503.233 61.1093 501.425 54.9672 499.648ZM138.822 469.295H116.935V530H108.002V469.295H86.1613V461.906H138.822V469.295ZM187.414 498.525H157.903V522.657H192.184V530H148.924V461.906H191.716V469.295H157.903V491.183H187.414V498.525ZM212.341 503.342V530H203.361V461.906H228.476C235.927 461.906 241.758 463.808 245.967 467.612C250.207 471.416 252.327 476.451 252.327 482.718C252.327 489.328 250.254 494.425 246.107 498.011C241.992 501.565 236.083 503.342 228.382 503.342H212.341ZM212.341 496H228.476C233.277 496 236.956 494.877 239.513 492.633C242.07 490.356 243.348 487.083 243.348 482.811C243.348 478.758 242.07 475.515 239.513 473.084C236.956 470.652 233.449 469.389 228.99 469.295H212.341V496ZM332.721 469.295H310.834V530H301.901V469.295H280.061V461.906H332.721V469.295ZM358.256 508.534L359.566 517.513L361.483 509.422L374.953 461.906H382.529L395.671 509.422L397.541 517.653L398.991 508.487L409.561 461.906H418.587L402.078 530H393.894L379.863 480.379L378.787 475.188L377.712 480.379L363.167 530H354.983L338.52 461.906H347.5L358.256 508.534ZM480.975 498.151C480.975 504.823 479.853 510.654 477.608 515.642C475.363 520.6 472.183 524.388 468.067 527.007C463.952 529.626 459.15 530.935 453.663 530.935C448.3 530.935 443.545 529.626 439.399 527.007C435.252 524.357 432.025 520.6 429.718 515.736C427.442 510.841 426.272 505.182 426.21 498.759V493.848C426.21 487.301 427.348 481.517 429.624 476.498C431.9 471.478 435.112 467.643 439.258 464.993C443.436 462.311 448.207 460.971 453.569 460.971C459.025 460.971 463.827 462.296 467.974 464.946C472.152 467.565 475.363 471.384 477.608 476.404C479.853 481.393 480.975 487.207 480.975 493.848V498.151ZM472.043 493.755C472.043 485.68 470.421 479.491 467.179 475.188C463.936 470.854 459.4 468.687 453.569 468.687C447.895 468.687 443.421 470.854 440.147 475.188C436.904 479.491 435.236 485.477 435.143 493.147V498.151C435.143 505.977 436.78 512.135 440.053 516.624C443.358 521.083 447.895 523.312 453.663 523.312C459.462 523.312 463.952 521.208 467.132 516.999C470.312 512.758 471.949 506.694 472.043 498.806V493.755Z" fill="white"/>
</svg>
