<svg width="569" height="558" viewBox="0 0 569 558" fill="none" xmlns="http://www.w3.org/2000/svg">
<path d="M14.9691 270.4C14.9691 221.851 24.1394 185.305 42.48 160.761C61.0903 136.217 87.3874 123.945 121.371 123.945C157.783 123.945 184.619 136.082 201.881 160.357C219.143 184.361 227.774 221.042 227.774 270.4C227.774 318.949 218.469 355.495 199.858 380.039C181.248 404.583 154.142 416.855 118.539 416.855C99.9291 416.855 84.016 413.618 70.8 407.145C57.8537 400.402 47.2 390.827 38.8389 378.421C30.7474 365.744 24.6789 350.37 20.6331 332.299C16.8571 314.229 14.9691 293.595 14.9691 270.4ZM60.2811 270.4C60.2811 289.819 61.2251 307.486 63.1131 323.399C65.2709 339.312 68.6423 352.933 73.2274 364.261C78.0823 375.589 84.1509 384.354 91.4332 390.558C98.7154 396.761 107.616 399.863 118.135 399.863C141.87 399.863 158.457 389.479 167.897 368.711C177.607 347.673 182.462 314.903 182.462 270.4C182.462 250.981 181.518 233.314 179.63 217.401C178.011 201.488 174.775 187.867 169.92 176.539C165.335 165.211 159.131 156.446 151.31 150.242C143.488 144.039 133.509 140.937 121.371 140.937C98.9851 140.937 83.2069 151.456 74.0366 172.494C64.8663 193.262 60.2811 225.897 60.2811 270.4ZM436.375 412H302.461V386.107H348.583V157.929L300.843 183.013L289.92 163.189L348.583 128.8H391.063V386.107H436.375V412Z" fill="white"/>
<path d="M39.9691 270.4C39.9691 221.851 49.1394 185.305 67.48 160.761C86.0903 136.217 112.387 123.945 146.371 123.945C182.783 123.945 209.619 136.082 226.881 160.357C244.143 184.361 252.774 221.042 252.774 270.4C252.774 318.949 243.469 355.495 224.858 380.039C206.248 404.583 179.142 416.855 143.539 416.855C124.929 416.855 109.016 413.618 95.8 407.145C82.8537 400.402 72.2 390.827 63.8389 378.421C55.7474 365.744 49.6789 350.37 45.6331 332.299C41.8571 314.229 39.9691 293.595 39.9691 270.4ZM85.2811 270.4C85.2811 289.819 86.2251 307.486 88.1131 323.399C90.2709 339.312 93.6423 352.933 98.2274 364.261C103.082 375.589 109.151 384.354 116.433 390.558C123.715 396.761 132.616 399.863 143.135 399.863C166.87 399.863 183.457 389.479 192.897 368.711C202.607 347.673 207.462 314.903 207.462 270.4C207.462 250.981 206.518 233.314 204.63 217.401C203.011 201.488 199.775 187.867 194.92 176.539C190.335 165.211 184.131 156.446 176.31 150.242C168.488 144.039 158.509 140.937 146.371 140.937C123.985 140.937 108.207 151.456 99.0366 172.494C89.8663 193.262 85.2811 225.897 85.2811 270.4ZM461.375 412H327.461V386.107H373.583V157.929L325.843 183.013L314.92 163.189L373.583 128.8H416.063V386.107H461.375V412Z" fill="#D6D6D6"/>
<path d="M55.9672 499.648C48.2661 497.434 42.6539 494.721 39.1307 491.51C35.6387 488.268 33.8927 484.277 33.8927 479.538C33.8927 474.175 36.0285 469.747 40.2999 466.255C44.6026 462.732 50.1835 460.971 57.0428 460.971C61.7196 460.971 65.8819 461.875 69.5298 463.683C73.2089 465.492 76.0461 467.986 78.0416 471.166C80.0682 474.346 81.0815 477.823 81.0815 481.595H72.0553C72.0553 477.48 70.7458 474.253 68.1268 471.914C65.5078 469.545 61.8131 468.36 57.0428 468.36C52.6155 468.36 49.1546 469.342 46.6604 471.306C44.1973 473.239 42.9657 475.936 42.9657 479.397C42.9657 482.172 44.1349 484.526 46.4733 486.459C48.8429 488.361 52.8493 490.107 58.4926 491.697C64.1671 493.287 68.5945 495.049 71.7747 496.982C74.9861 498.884 77.3556 501.113 78.8834 503.67C80.4423 506.226 81.2218 509.235 81.2218 512.696C81.2218 518.215 79.0705 522.642 74.7678 525.978C70.4652 529.283 64.7127 530.935 57.5105 530.935C52.8337 530.935 48.4687 530.047 44.4155 528.27C40.3623 526.461 37.2288 523.998 35.0152 520.88C32.8327 517.762 31.7414 514.224 31.7414 510.264H40.7676C40.7676 514.38 42.2798 517.638 45.3041 520.038C48.3596 522.408 52.4284 523.593 57.5105 523.593C62.2496 523.593 65.8819 522.626 68.4074 520.693C70.9329 518.76 72.1956 516.126 72.1956 512.789C72.1956 509.453 71.0264 506.881 68.688 505.073C66.3496 503.233 62.1093 501.425 55.9672 499.648ZM139.822 469.295H117.935V530H109.002V469.295H87.1613V461.906H139.822V469.295ZM188.414 498.525H158.903V522.657H193.184V530H149.924V461.906H192.716V469.295H158.903V491.183H188.414V498.525ZM213.341 503.342V530H204.361V461.906H229.476C236.927 461.906 242.758 463.808 246.967 467.612C251.207 471.416 253.327 476.451 253.327 482.718C253.327 489.328 251.254 494.425 247.107 498.011C242.992 501.565 237.083 503.342 229.382 503.342H213.341ZM213.341 496H229.476C234.277 496 237.956 494.877 240.513 492.633C243.07 490.356 244.348 487.083 244.348 482.811C244.348 478.758 243.07 475.515 240.513 473.084C237.956 470.652 234.449 469.389 229.99 469.295H213.341V496ZM340.923 498.151C340.923 504.823 339.801 510.654 337.556 515.642C335.311 520.6 332.131 524.388 328.016 527.007C323.9 529.626 319.098 530.935 313.611 530.935C308.248 530.935 303.494 529.626 299.347 527.007C295.2 524.357 291.973 520.6 289.666 515.736C287.39 510.841 286.221 505.182 286.158 498.759V493.848C286.158 487.301 287.296 481.517 289.572 476.498C291.848 471.478 295.06 467.643 299.207 464.993C303.384 462.311 308.155 460.971 313.518 460.971C318.974 460.971 323.775 462.296 327.922 464.946C332.1 467.565 335.311 471.384 337.556 476.404C339.801 481.393 340.923 487.207 340.923 493.848V498.151ZM331.991 493.755C331.991 485.68 330.37 479.491 327.127 475.188C323.884 470.854 319.348 468.687 313.518 468.687C307.843 468.687 303.369 470.854 300.095 475.188C296.853 479.491 295.185 485.477 295.091 493.147V498.151C295.091 505.977 296.728 512.135 300.002 516.624C303.307 521.083 307.843 523.312 313.611 523.312C319.41 523.312 323.9 521.208 327.08 516.999C330.26 512.758 331.897 506.694 331.991 498.806V493.755ZM406.726 530H397.7L363.419 477.527V530H354.393V461.906H363.419L397.793 514.613V461.906H406.726V530ZM461.164 498.525H431.653V522.657H465.934V530H422.674V461.906H465.466V469.295H431.653V491.183H461.164V498.525Z" fill="white"/>
</svg>
