<svg width="601" height="558" viewBox="0 0 601 558" fill="none" xmlns="http://www.w3.org/2000/svg">
<path d="M46.9691 270.4C46.9691 221.851 56.1394 185.305 74.48 160.761C93.0903 136.217 119.387 123.945 153.371 123.945C189.783 123.945 216.619 136.082 233.881 160.357C251.143 184.361 259.774 221.042 259.774 270.4C259.774 318.949 250.469 355.495 231.858 380.039C213.248 404.583 186.142 416.855 150.539 416.855C131.929 416.855 116.016 413.618 102.8 407.145C89.8537 400.402 79.2 390.827 70.8389 378.421C62.7474 365.744 56.6789 350.37 52.6331 332.299C48.8571 314.229 46.9691 293.595 46.9691 270.4ZM92.2811 270.4C92.2811 289.819 93.2251 307.486 95.1131 323.399C97.2709 339.312 100.642 352.933 105.227 364.261C110.082 375.589 116.151 384.354 123.433 390.558C130.715 396.761 139.616 399.863 150.135 399.863C173.87 399.863 190.457 389.479 199.897 368.711C209.607 347.673 214.462 314.903 214.462 270.4C214.462 250.981 213.518 233.314 211.63 217.401C210.011 201.488 206.775 187.867 201.92 176.539C197.335 165.211 191.131 156.446 183.31 150.242C175.488 144.039 165.509 140.937 153.371 140.937C130.985 140.937 115.207 151.456 106.037 172.494C96.8663 193.262 92.2811 225.897 92.2811 270.4ZM384.224 394.199C394.203 394.199 403.239 392.715 411.33 389.749C419.421 386.512 426.434 382.197 432.368 376.802C438.301 371.408 442.887 365.205 446.123 358.192C449.36 350.91 450.978 343.088 450.978 334.727C450.978 325.017 449.225 316.521 445.719 309.239C442.212 301.687 437.357 295.483 431.154 290.629C425.22 285.504 418.208 281.728 410.116 279.301C402.025 276.603 393.394 275.255 384.224 275.255H355.499V247.744L446.528 160.357V158.738L422.253 161.166H340.935L332.843 169.257V201.623H306.951V128.8H481.725V160.357L405.666 231.561C402.429 234.528 399.328 237.36 396.361 240.057C393.933 242.215 391.641 244.238 389.483 246.126C387.595 248.014 386.381 249.093 385.842 249.362V250.171C386.112 250.171 387.056 250.037 388.674 249.767C390.292 249.497 392.045 249.093 393.933 248.553C396.091 248.014 398.519 247.609 401.216 247.339C415.511 247.879 428.457 250.037 440.055 253.813C451.652 257.319 461.632 262.578 469.993 269.591C478.354 276.334 484.692 284.695 489.008 294.674C493.593 304.384 495.885 315.712 495.885 328.658C495.885 342.144 492.919 354.281 486.985 365.07C481.321 375.858 473.499 385.029 463.52 392.581C453.54 400.133 441.808 405.931 428.322 409.977C414.836 414.023 400.407 416.046 385.033 416.046C378.02 416.046 370.468 415.506 362.377 414.427C354.555 413.349 346.868 412 339.316 410.382C331.764 408.494 324.617 406.336 317.874 403.909C311.401 401.211 306.007 398.245 301.691 395.008V347.269H340.53V383.275C344.306 385.973 350.105 388.535 357.927 390.962C366.018 393.12 374.784 394.199 384.224 394.199Z" fill="white"/>
<path d="M71.9691 270.4C71.9691 221.851 81.1394 185.305 99.48 160.761C118.09 136.217 144.387 123.945 178.371 123.945C214.783 123.945 241.619 136.082 258.881 160.357C276.143 184.361 284.774 221.042 284.774 270.4C284.774 318.949 275.469 355.495 256.858 380.039C238.248 404.583 211.142 416.855 175.539 416.855C156.929 416.855 141.016 413.618 127.8 407.145C114.854 400.402 104.2 390.827 95.8389 378.421C87.7474 365.744 81.6789 350.37 77.6331 332.299C73.8571 314.229 71.9691 293.595 71.9691 270.4ZM117.281 270.4C117.281 289.819 118.225 307.486 120.113 323.399C122.271 339.312 125.642 352.933 130.227 364.261C135.082 375.589 141.151 384.354 148.433 390.558C155.715 396.761 164.616 399.863 175.135 399.863C198.87 399.863 215.457 389.479 224.897 368.711C234.607 347.673 239.462 314.903 239.462 270.4C239.462 250.981 238.518 233.314 236.63 217.401C235.011 201.488 231.775 187.867 226.92 176.539C222.335 165.211 216.131 156.446 208.31 150.242C200.488 144.039 190.509 140.937 178.371 140.937C155.985 140.937 140.207 151.456 131.037 172.494C121.866 193.262 117.281 225.897 117.281 270.4ZM409.224 394.199C419.203 394.199 428.239 392.715 436.33 389.749C444.421 386.512 451.434 382.197 457.368 376.802C463.301 371.408 467.887 365.205 471.123 358.192C474.36 350.91 475.978 343.088 475.978 334.727C475.978 325.017 474.225 316.521 470.719 309.239C467.212 301.687 462.357 295.483 456.154 290.629C450.22 285.504 443.208 281.728 435.116 279.301C427.025 276.603 418.394 275.255 409.224 275.255H380.499V247.744L471.528 160.357V158.738L447.253 161.166H365.935L357.843 169.257V201.623H331.951V128.8H506.725V160.357L430.666 231.561C427.429 234.528 424.328 237.36 421.361 240.057C418.933 242.215 416.641 244.238 414.483 246.126C412.595 248.014 411.381 249.093 410.842 249.362V250.171C411.112 250.171 412.056 250.037 413.674 249.767C415.292 249.497 417.045 249.093 418.933 248.553C421.091 248.014 423.519 247.609 426.216 247.339C440.511 247.879 453.457 250.037 465.055 253.813C476.652 257.319 486.632 262.578 494.993 269.591C503.354 276.334 509.692 284.695 514.008 294.674C518.593 304.384 520.885 315.712 520.885 328.658C520.885 342.144 517.919 354.281 511.985 365.07C506.321 375.858 498.499 385.029 488.52 392.581C478.54 400.133 466.808 405.931 453.322 409.977C439.836 414.023 425.407 416.046 410.033 416.046C403.02 416.046 395.468 415.506 387.377 414.427C379.555 413.349 371.868 412 364.316 410.382C356.764 408.494 349.617 406.336 342.874 403.909C336.401 401.211 331.007 398.245 326.691 395.008V347.269H365.53V383.275C369.306 385.973 375.105 388.535 382.927 390.962C391.018 393.12 399.784 394.199 409.224 394.199Z" fill="#D6D6D6"/>
<path d="M27.9672 499.648C20.2661 497.434 14.6539 494.721 11.1307 491.51C7.63874 488.268 5.89274 484.277 5.89274 479.538C5.89274 474.175 8.02848 469.747 12.2999 466.255C16.6026 462.732 22.1835 460.971 29.0428 460.971C33.7196 460.971 37.8819 461.875 41.5298 463.683C45.2089 465.492 48.0461 467.986 50.0416 471.166C52.0682 474.346 53.0815 477.823 53.0815 481.595H44.0553C44.0553 477.48 42.7458 474.253 40.1268 471.914C37.5078 469.545 33.8131 468.36 29.0428 468.36C24.6155 468.36 21.1546 469.342 18.6604 471.306C16.1973 473.239 14.9657 475.936 14.9657 479.397C14.9657 482.172 16.1349 484.526 18.4733 486.459C20.8429 488.361 24.8493 490.107 30.4926 491.697C36.1671 493.287 40.5945 495.049 43.7747 496.982C46.9861 498.884 49.3556 501.113 50.8834 503.67C52.4423 506.226 53.2218 509.235 53.2218 512.696C53.2218 518.215 51.0705 522.642 46.7678 525.978C42.4652 529.283 36.7127 530.935 29.5105 530.935C24.8337 530.935 20.4687 530.047 16.4155 528.27C12.3623 526.461 9.22885 523.998 7.01517 520.88C4.83267 517.762 3.74143 514.224 3.74143 510.264H12.7676C12.7676 514.38 14.2798 517.638 17.3041 520.038C20.3596 522.408 24.4284 523.593 29.5105 523.593C34.2496 523.593 37.8819 522.626 40.4074 520.693C42.9329 518.76 44.1956 516.126 44.1956 512.789C44.1956 509.453 43.0264 506.881 40.688 505.073C38.3496 503.233 34.1093 501.425 27.9672 499.648ZM111.822 469.295H89.9345V530H81.0019V469.295H59.1613V461.906H111.822V469.295ZM160.414 498.525H130.903V522.657H165.184V530H121.924V461.906H164.716V469.295H130.903V491.183H160.414V498.525ZM185.341 503.342V530H176.361V461.906H201.476C208.927 461.906 214.758 463.808 218.967 467.612C223.207 471.416 225.327 476.451 225.327 482.718C225.327 489.328 223.254 494.425 219.107 498.011C214.992 501.565 209.083 503.342 201.382 503.342H185.341ZM185.341 496H201.476C206.277 496 209.956 494.877 212.513 492.633C215.07 490.356 216.348 487.083 216.348 482.811C216.348 478.758 215.07 475.515 212.513 473.084C209.956 470.652 206.449 469.389 201.99 469.295H185.341V496ZM305.721 469.295H283.834V530H274.901V469.295H253.061V461.906H305.721V469.295ZM368.156 530H359.13V498.525H324.802V530H315.823V461.906H324.802V491.183H359.13V461.906H368.156V530ZM409.078 502.454H393.083V530H384.057V461.906H406.599C414.269 461.906 420.162 463.652 424.278 467.144C428.424 470.636 430.498 475.718 430.498 482.39C430.498 486.631 429.344 490.325 427.037 493.474C424.761 496.623 421.581 498.977 417.496 500.536L433.491 529.439V530H423.857L409.078 502.454ZM393.083 495.111H406.88C411.339 495.111 414.877 493.958 417.496 491.65C420.146 489.343 421.472 486.257 421.472 482.39C421.472 478.181 420.209 474.954 417.683 472.709C415.189 470.465 411.572 469.327 406.833 469.295H393.083V495.111ZM481.615 498.525H452.104V522.657H486.385V530H443.125V461.906H485.918V469.295H452.104V491.183H481.615V498.525ZM536.053 498.525H506.542V522.657H540.823V530H497.563V461.906H540.355V469.295H506.542V491.183H536.053V498.525Z" fill="white"/>
</svg>
